<mxfile host="app.diagrams.net" modified="2023-02-24T06:56:07.915Z" agent="5.0 (Windows NT 10.0; Win64; x64) AppleWebKit/537.36 (KHTML, like Gecko) Chrome/109.0.0.0 Safari/537.36" etag="25qT7pSTar7aIcCYFoJe" version="20.8.23" type="github">
  <diagram id="NnQSPtpyf3QNm0dHi21h" name="第 2 页">
    <mxGraphModel dx="1434" dy="1582" grid="1" gridSize="10" guides="1" tooltips="1" connect="1" arrows="1" fold="1" page="1" pageScale="1" pageWidth="1169" pageHeight="827" math="0" shadow="0">
      <root>
        <mxCell id="0" />
        <mxCell id="1" parent="0" />
        <mxCell id="keWIGBocF02JREnCztjM-63" value="io.java.exam.common" style="shape=folder;fontStyle=1;tabWidth=200;tabHeight=30;tabPosition=left;html=1;boundedLbl=1;labelInHeader=1;container=1;collapsible=0;recursiveResize=0;" parent="1" vertex="1">
          <mxGeometry x="130" y="-743" width="380" height="650" as="geometry" />
        </mxCell>
        <mxCell id="keWIGBocF02JREnCztjM-24" value="BaseStaff" style="swimlane;fontStyle=3;align=center;verticalAlign=top;childLayout=stackLayout;horizontal=1;startSize=26;horizontalStack=0;resizeParent=1;resizeParentMax=0;resizeLast=0;collapsible=1;marginBottom=0;" parent="keWIGBocF02JREnCztjM-63" vertex="1">
          <mxGeometry x="67.5" y="89" width="245" height="86" as="geometry">
            <mxRectangle x="240" y="170" width="90" height="26" as="alternateBounds" />
          </mxGeometry>
        </mxCell>
        <mxCell id="keWIGBocF02JREnCztjM-25" value="&lt;&lt;get/set&gt;&gt; - id: String" style="text;strokeColor=none;fillColor=none;align=left;verticalAlign=top;spacingLeft=4;spacingRight=4;overflow=hidden;rotatable=0;points=[[0,0.5],[1,0.5]];portConstraint=eastwest;" parent="keWIGBocF02JREnCztjM-24" vertex="1">
          <mxGeometry y="26" width="245" height="26" as="geometry" />
        </mxCell>
        <mxCell id="keWIGBocF02JREnCztjM-28" value="&lt;&lt;get/set&gt;&gt; - name: String" style="text;strokeColor=none;fillColor=none;align=left;verticalAlign=top;spacingLeft=4;spacingRight=4;overflow=hidden;rotatable=0;points=[[0,0.5],[1,0.5]];portConstraint=eastwest;" parent="keWIGBocF02JREnCztjM-24" vertex="1">
          <mxGeometry y="52" width="245" height="26" as="geometry" />
        </mxCell>
        <mxCell id="keWIGBocF02JREnCztjM-26" value="" style="line;strokeWidth=1;fillColor=none;align=left;verticalAlign=middle;spacingTop=-1;spacingLeft=3;spacingRight=3;rotatable=0;labelPosition=right;points=[];portConstraint=eastwest;" parent="keWIGBocF02JREnCztjM-24" vertex="1">
          <mxGeometry y="78" width="245" height="8" as="geometry" />
        </mxCell>
        <mxCell id="keWIGBocF02JREnCztjM-79" value="BasePlant" style="swimlane;fontStyle=3;align=center;verticalAlign=top;childLayout=stackLayout;horizontal=1;startSize=26;horizontalStack=0;resizeParent=1;resizeParentMax=0;resizeLast=0;collapsible=1;marginBottom=0;" parent="keWIGBocF02JREnCztjM-63" vertex="1">
          <mxGeometry x="76.25" y="381" width="247.5" height="86" as="geometry">
            <mxRectangle x="240" y="170" width="90" height="26" as="alternateBounds" />
          </mxGeometry>
        </mxCell>
        <mxCell id="keWIGBocF02JREnCztjM-80" value="&lt;&lt;get/set&gt;&gt; - id: String" style="text;strokeColor=none;fillColor=none;align=left;verticalAlign=top;spacingLeft=4;spacingRight=4;overflow=hidden;rotatable=0;points=[[0,0.5],[1,0.5]];portConstraint=eastwest;" parent="keWIGBocF02JREnCztjM-79" vertex="1">
          <mxGeometry y="26" width="247.5" height="26" as="geometry" />
        </mxCell>
        <mxCell id="keWIGBocF02JREnCztjM-84" value="&lt;&lt;get/set&gt;&gt; - name: String" style="text;strokeColor=none;fillColor=none;align=left;verticalAlign=top;spacingLeft=4;spacingRight=4;overflow=hidden;rotatable=0;points=[[0,0.5],[1,0.5]];portConstraint=eastwest;" parent="keWIGBocF02JREnCztjM-79" vertex="1">
          <mxGeometry y="52" width="247.5" height="26" as="geometry" />
        </mxCell>
        <mxCell id="keWIGBocF02JREnCztjM-81" value="" style="line;strokeWidth=1;fillColor=none;align=left;verticalAlign=middle;spacingTop=-1;spacingLeft=3;spacingRight=3;rotatable=0;labelPosition=right;points=[];portConstraint=eastwest;" parent="keWIGBocF02JREnCztjM-79" vertex="1">
          <mxGeometry y="78" width="247.5" height="8" as="geometry" />
        </mxCell>
        <mxCell id="gZg1OB7kJeGNL3k7u4_E-24" value="&amp;lt;&amp;lt;interface&amp;gt;&amp;gt;&lt;br&gt;&lt;b&gt;IOperate&lt;/b&gt;" style="swimlane;fontStyle=0;align=center;verticalAlign=top;childLayout=stackLayout;horizontal=1;startSize=40;horizontalStack=0;resizeParent=1;resizeParentMax=0;resizeLast=0;collapsible=0;marginBottom=0;html=1;" parent="keWIGBocF02JREnCztjM-63" vertex="1">
          <mxGeometry x="120" y="240" width="140" height="68" as="geometry" />
        </mxCell>
        <mxCell id="gZg1OB7kJeGNL3k7u4_E-29" value="" style="line;strokeWidth=1;fillColor=none;align=left;verticalAlign=middle;spacingTop=-1;spacingLeft=3;spacingRight=3;rotatable=0;labelPosition=right;points=[];portConstraint=eastwest;" parent="gZg1OB7kJeGNL3k7u4_E-24" vertex="1">
          <mxGeometry y="40" width="140" height="8" as="geometry" />
        </mxCell>
        <mxCell id="gZg1OB7kJeGNL3k7u4_E-31" value="+ work(): void" style="text;html=1;strokeColor=none;fillColor=none;align=left;verticalAlign=middle;spacingLeft=4;spacingRight=4;overflow=hidden;rotatable=0;points=[[0,0.5],[1,0.5]];portConstraint=eastwest;" parent="gZg1OB7kJeGNL3k7u4_E-24" vertex="1">
          <mxGeometry y="48" width="140" height="20" as="geometry" />
        </mxCell>
        <mxCell id="gZg1OB7kJeGNL3k7u4_E-32" value="&amp;lt;&amp;lt;interface&amp;gt;&amp;gt;&lt;br&gt;&lt;b&gt;IFoster&lt;/b&gt;" style="swimlane;fontStyle=0;align=center;verticalAlign=top;childLayout=stackLayout;horizontal=1;startSize=40;horizontalStack=0;resizeParent=1;resizeParentMax=0;resizeLast=0;collapsible=0;marginBottom=0;html=1;" parent="keWIGBocF02JREnCztjM-63" vertex="1">
          <mxGeometry x="130" y="550" width="140" height="68" as="geometry" />
        </mxCell>
        <mxCell id="gZg1OB7kJeGNL3k7u4_E-33" value="" style="line;strokeWidth=1;fillColor=none;align=left;verticalAlign=middle;spacingTop=-1;spacingLeft=3;spacingRight=3;rotatable=0;labelPosition=right;points=[];portConstraint=eastwest;" parent="gZg1OB7kJeGNL3k7u4_E-32" vertex="1">
          <mxGeometry y="40" width="140" height="8" as="geometry" />
        </mxCell>
        <mxCell id="gZg1OB7kJeGNL3k7u4_E-34" value="+ care(): void" style="text;html=1;strokeColor=none;fillColor=none;align=left;verticalAlign=middle;spacingLeft=4;spacingRight=4;overflow=hidden;rotatable=0;points=[[0,0.5],[1,0.5]];portConstraint=eastwest;" parent="gZg1OB7kJeGNL3k7u4_E-32" vertex="1">
          <mxGeometry y="48" width="140" height="20" as="geometry" />
        </mxCell>
        <mxCell id="gZg1OB7kJeGNL3k7u4_E-38" value="" style="endArrow=block;endSize=16;endFill=0;html=1;strokeWidth=1;dashed=1;jumpSize=6;rounded=0;arcSize=20;" parent="keWIGBocF02JREnCztjM-63" source="keWIGBocF02JREnCztjM-24" target="gZg1OB7kJeGNL3k7u4_E-24" edge="1">
          <mxGeometry width="160" relative="1" as="geometry">
            <mxPoint x="310" y="511" as="sourcePoint" />
            <mxPoint x="310" y="240" as="targetPoint" />
          </mxGeometry>
        </mxCell>
        <mxCell id="gZg1OB7kJeGNL3k7u4_E-39" value="" style="endArrow=block;endSize=16;endFill=0;html=1;strokeWidth=1;dashed=1;jumpSize=6;rounded=0;arcSize=20;" parent="keWIGBocF02JREnCztjM-63" source="keWIGBocF02JREnCztjM-79" target="gZg1OB7kJeGNL3k7u4_E-32" edge="1">
          <mxGeometry width="160" relative="1" as="geometry">
            <mxPoint x="175" y="280" as="sourcePoint" />
            <mxPoint x="175" y="197.99999999999977" as="targetPoint" />
          </mxGeometry>
        </mxCell>
        <mxCell id="keWIGBocF02JREnCztjM-78" value="io.java.exam.model" style="shape=folder;fontStyle=1;tabWidth=200;tabHeight=30;tabPosition=left;html=1;boundedLbl=1;labelInHeader=1;container=1;collapsible=0;recursiveResize=0;" parent="1" vertex="1">
          <mxGeometry x="610" y="-743" width="430" height="660" as="geometry" />
        </mxCell>
        <mxCell id="keWIGBocF02JREnCztjM-49" value="Gardener" style="swimlane;fontStyle=1;align=center;verticalAlign=top;childLayout=stackLayout;horizontal=1;startSize=26;horizontalStack=0;resizeParent=1;resizeParentMax=0;resizeLast=0;collapsible=1;marginBottom=0;" parent="keWIGBocF02JREnCztjM-78" vertex="1">
          <mxGeometry x="75" y="63" width="280" height="138" as="geometry">
            <mxRectangle x="240" y="170" width="90" height="26" as="alternateBounds" />
          </mxGeometry>
        </mxCell>
        <mxCell id="keWIGBocF02JREnCztjM-51" value="&lt;&lt;get/set&gt;&gt; - plants: List&lt;BasePlant&gt;" style="text;strokeColor=none;fillColor=none;align=left;verticalAlign=top;spacingLeft=4;spacingRight=4;overflow=hidden;rotatable=0;points=[[0,0.5],[1,0.5]];portConstraint=eastwest;" parent="keWIGBocF02JREnCztjM-49" vertex="1">
          <mxGeometry y="26" width="280" height="26" as="geometry" />
        </mxCell>
        <mxCell id="keWIGBocF02JREnCztjM-52" value="" style="line;strokeWidth=1;fillColor=none;align=left;verticalAlign=middle;spacingTop=-1;spacingLeft=3;spacingRight=3;rotatable=0;labelPosition=right;points=[];portConstraint=eastwest;" parent="keWIGBocF02JREnCztjM-49" vertex="1">
          <mxGeometry y="52" width="280" height="8" as="geometry" />
        </mxCell>
        <mxCell id="gZg1OB7kJeGNL3k7u4_E-6" value="&lt;&lt;Create&gt;&gt; + Gardener()" style="text;strokeColor=none;fillColor=none;align=left;verticalAlign=top;spacingLeft=4;spacingRight=4;overflow=hidden;rotatable=0;points=[[0,0.5],[1,0.5]];portConstraint=eastwest;" parent="keWIGBocF02JREnCztjM-49" vertex="1">
          <mxGeometry y="60" width="280" height="26" as="geometry" />
        </mxCell>
        <mxCell id="gZg1OB7kJeGNL3k7u4_E-5" value="&lt;&lt;Create&gt;&gt; + Gardener(id: String, name: String)" style="text;strokeColor=none;fillColor=none;align=left;verticalAlign=top;spacingLeft=4;spacingRight=4;overflow=hidden;rotatable=0;points=[[0,0.5],[1,0.5]];portConstraint=eastwest;" parent="keWIGBocF02JREnCztjM-49" vertex="1">
          <mxGeometry y="86" width="280" height="26" as="geometry" />
        </mxCell>
        <mxCell id="keWIGBocF02JREnCztjM-53" value="+ work(): void" style="text;strokeColor=none;fillColor=none;align=left;verticalAlign=top;spacingLeft=4;spacingRight=4;overflow=hidden;rotatable=0;points=[[0,0.5],[1,0.5]];portConstraint=eastwest;" parent="keWIGBocF02JREnCztjM-49" vertex="1">
          <mxGeometry y="112" width="280" height="26" as="geometry" />
        </mxCell>
        <mxCell id="keWIGBocF02JREnCztjM-214" value="FloweringPlant" style="swimlane;fontStyle=1;align=center;verticalAlign=top;childLayout=stackLayout;horizontal=1;startSize=26;horizontalStack=0;resizeParent=1;resizeParentMax=0;resizeLast=0;collapsible=1;marginBottom=0;" parent="keWIGBocF02JREnCztjM-78" vertex="1">
          <mxGeometry x="57.5" y="230" width="315" height="112" as="geometry">
            <mxRectangle x="240" y="170" width="90" height="26" as="alternateBounds" />
          </mxGeometry>
        </mxCell>
        <mxCell id="keWIGBocF02JREnCztjM-219" value="" style="line;strokeWidth=1;fillColor=none;align=left;verticalAlign=middle;spacingTop=-1;spacingLeft=3;spacingRight=3;rotatable=0;labelPosition=right;points=[];portConstraint=eastwest;" parent="keWIGBocF02JREnCztjM-214" vertex="1">
          <mxGeometry y="26" width="315" height="8" as="geometry" />
        </mxCell>
        <mxCell id="gZg1OB7kJeGNL3k7u4_E-8" value="&lt;&lt;Create&gt;&gt; + FloweringPlant()" style="text;strokeColor=none;fillColor=none;align=left;verticalAlign=top;spacingLeft=4;spacingRight=4;overflow=hidden;rotatable=0;points=[[0,0.5],[1,0.5]];portConstraint=eastwest;" parent="keWIGBocF02JREnCztjM-214" vertex="1">
          <mxGeometry y="34" width="315" height="26" as="geometry" />
        </mxCell>
        <mxCell id="gZg1OB7kJeGNL3k7u4_E-9" value="&lt;&lt;Create&gt;&gt; + FloweringPlant(id: String, name: String)" style="text;strokeColor=none;fillColor=none;align=left;verticalAlign=top;spacingLeft=4;spacingRight=4;overflow=hidden;rotatable=0;points=[[0,0.5],[1,0.5]];portConstraint=eastwest;" parent="keWIGBocF02JREnCztjM-214" vertex="1">
          <mxGeometry y="60" width="315" height="26" as="geometry" />
        </mxCell>
        <mxCell id="keWIGBocF02JREnCztjM-227" value="+ care(): void" style="text;strokeColor=none;fillColor=none;align=left;verticalAlign=top;spacingLeft=4;spacingRight=4;overflow=hidden;rotatable=0;points=[[0,0.5],[1,0.5]];portConstraint=eastwest;" parent="keWIGBocF02JREnCztjM-214" vertex="1">
          <mxGeometry y="86" width="315" height="26" as="geometry" />
        </mxCell>
        <mxCell id="keWIGBocF02JREnCztjM-228" value="FoliagePlant" style="swimlane;fontStyle=1;align=center;verticalAlign=top;childLayout=stackLayout;horizontal=1;startSize=26;horizontalStack=0;resizeParent=1;resizeParentMax=0;resizeLast=0;collapsible=1;marginBottom=0;" parent="keWIGBocF02JREnCztjM-78" vertex="1">
          <mxGeometry x="57.5" y="514" width="315" height="112" as="geometry">
            <mxRectangle x="240" y="170" width="90" height="26" as="alternateBounds" />
          </mxGeometry>
        </mxCell>
        <mxCell id="keWIGBocF02JREnCztjM-229" value="" style="line;strokeWidth=1;fillColor=none;align=left;verticalAlign=middle;spacingTop=-1;spacingLeft=3;spacingRight=3;rotatable=0;labelPosition=right;points=[];portConstraint=eastwest;" parent="keWIGBocF02JREnCztjM-228" vertex="1">
          <mxGeometry y="26" width="315" height="8" as="geometry" />
        </mxCell>
        <mxCell id="gZg1OB7kJeGNL3k7u4_E-10" value="&lt;&lt;Create&gt;&gt; + FoliagePlant()" style="text;strokeColor=none;fillColor=none;align=left;verticalAlign=top;spacingLeft=4;spacingRight=4;overflow=hidden;rotatable=0;points=[[0,0.5],[1,0.5]];portConstraint=eastwest;" parent="keWIGBocF02JREnCztjM-228" vertex="1">
          <mxGeometry y="34" width="315" height="26" as="geometry" />
        </mxCell>
        <mxCell id="gZg1OB7kJeGNL3k7u4_E-11" value="&lt;&lt;Create&gt;&gt; + FoliagePlant(id: String, name: String)" style="text;strokeColor=none;fillColor=none;align=left;verticalAlign=top;spacingLeft=4;spacingRight=4;overflow=hidden;rotatable=0;points=[[0,0.5],[1,0.5]];portConstraint=eastwest;" parent="keWIGBocF02JREnCztjM-228" vertex="1">
          <mxGeometry y="60" width="315" height="26" as="geometry" />
        </mxCell>
        <mxCell id="keWIGBocF02JREnCztjM-230" value="+ care(): void" style="text;strokeColor=none;fillColor=none;align=left;verticalAlign=top;spacingLeft=4;spacingRight=4;overflow=hidden;rotatable=0;points=[[0,0.5],[1,0.5]];portConstraint=eastwest;" parent="keWIGBocF02JREnCztjM-228" vertex="1">
          <mxGeometry y="86" width="315" height="26" as="geometry" />
        </mxCell>
        <mxCell id="keWIGBocF02JREnCztjM-231" value="FruitPlant" style="swimlane;fontStyle=1;align=center;verticalAlign=top;childLayout=stackLayout;horizontal=1;startSize=26;horizontalStack=0;resizeParent=1;resizeParentMax=0;resizeLast=0;collapsible=1;marginBottom=0;" parent="keWIGBocF02JREnCztjM-78" vertex="1">
          <mxGeometry x="57.5" y="368" width="315" height="112" as="geometry">
            <mxRectangle x="240" y="170" width="90" height="26" as="alternateBounds" />
          </mxGeometry>
        </mxCell>
        <mxCell id="keWIGBocF02JREnCztjM-232" value="" style="line;strokeWidth=1;fillColor=none;align=left;verticalAlign=middle;spacingTop=-1;spacingLeft=3;spacingRight=3;rotatable=0;labelPosition=right;points=[];portConstraint=eastwest;" parent="keWIGBocF02JREnCztjM-231" vertex="1">
          <mxGeometry y="26" width="315" height="8" as="geometry" />
        </mxCell>
        <mxCell id="gZg1OB7kJeGNL3k7u4_E-13" value="&lt;&lt;Create&gt;&gt; + FruitPlant(id: String, name: String)" style="text;strokeColor=none;fillColor=none;align=left;verticalAlign=top;spacingLeft=4;spacingRight=4;overflow=hidden;rotatable=0;points=[[0,0.5],[1,0.5]];portConstraint=eastwest;" parent="keWIGBocF02JREnCztjM-231" vertex="1">
          <mxGeometry y="34" width="315" height="26" as="geometry" />
        </mxCell>
        <mxCell id="gZg1OB7kJeGNL3k7u4_E-12" value="&lt;&lt;Create&gt;&gt; + FruitPlant()" style="text;strokeColor=none;fillColor=none;align=left;verticalAlign=top;spacingLeft=4;spacingRight=4;overflow=hidden;rotatable=0;points=[[0,0.5],[1,0.5]];portConstraint=eastwest;" parent="keWIGBocF02JREnCztjM-231" vertex="1">
          <mxGeometry y="60" width="315" height="26" as="geometry" />
        </mxCell>
        <mxCell id="keWIGBocF02JREnCztjM-233" value="+ care(): void" style="text;strokeColor=none;fillColor=none;align=left;verticalAlign=top;spacingLeft=4;spacingRight=4;overflow=hidden;rotatable=0;points=[[0,0.5],[1,0.5]];portConstraint=eastwest;" parent="keWIGBocF02JREnCztjM-231" vertex="1">
          <mxGeometry y="86" width="315" height="26" as="geometry" />
        </mxCell>
        <mxCell id="dflcO7hPWQ8yH8qj-nFV-1" value="" style="endArrow=block;endSize=16;endFill=0;html=1;rounded=0;edgeStyle=elbowEdgeStyle;" parent="1" source="keWIGBocF02JREnCztjM-231" target="keWIGBocF02JREnCztjM-79" edge="1">
          <mxGeometry width="160" relative="1" as="geometry">
            <mxPoint x="330" y="-340" as="sourcePoint" />
            <mxPoint x="490" y="-340" as="targetPoint" />
          </mxGeometry>
        </mxCell>
        <mxCell id="dflcO7hPWQ8yH8qj-nFV-2" value="" style="endArrow=block;endSize=16;endFill=0;html=1;rounded=0;edgeStyle=elbowEdgeStyle;" parent="1" source="keWIGBocF02JREnCztjM-228" target="keWIGBocF02JREnCztjM-79" edge="1">
          <mxGeometry width="160" relative="1" as="geometry">
            <mxPoint x="558" y="-376" as="sourcePoint" />
            <mxPoint x="334" y="-269" as="targetPoint" />
          </mxGeometry>
        </mxCell>
        <mxCell id="dflcO7hPWQ8yH8qj-nFV-3" value="" style="endArrow=block;endSize=16;endFill=0;html=1;rounded=0;edgeStyle=elbowEdgeStyle;" parent="1" source="keWIGBocF02JREnCztjM-214" target="keWIGBocF02JREnCztjM-79" edge="1">
          <mxGeometry width="160" relative="1" as="geometry">
            <mxPoint x="558" y="-230" as="sourcePoint" />
            <mxPoint x="334" y="-269" as="targetPoint" />
          </mxGeometry>
        </mxCell>
        <mxCell id="dflcO7hPWQ8yH8qj-nFV-4" value="" style="endArrow=block;endSize=16;endFill=0;html=1;rounded=0;edgeStyle=elbowEdgeStyle;" parent="1" source="keWIGBocF02JREnCztjM-49" target="keWIGBocF02JREnCztjM-24" edge="1">
          <mxGeometry width="160" relative="1" as="geometry">
            <mxPoint x="558" y="-514" as="sourcePoint" />
            <mxPoint x="334" y="-269" as="targetPoint" />
          </mxGeometry>
        </mxCell>
      </root>
    </mxGraphModel>
  </diagram>
</mxfile>
